HIERARCHY
ROOT Hips
{
	OFFSET 0.000000 0.000000 0.000000 
	CHANNELS 6 Xposition Yposition Zposition Xrotation Yrotation Zrotation
	JOINT Spine
	{
		OFFSET 0.000000 1.722820 2.584230 
		CHANNELS 3 Xrotation Yrotation Zrotation
		JOINT Spine1
		{
			OFFSET 0.000000 0.598330 3.393290 
			CHANNELS 3 Xrotation Yrotation Zrotation
			JOINT Spine2
			{
				OFFSET 0.000000 0.300310 3.432520 
				CHANNELS 3 Xrotation Yrotation Zrotation
				JOINT Spine3
				{
					OFFSET 0.000000 0.000000 3.445640 
					CHANNELS 3 Xrotation Yrotation Zrotation
					JOINT Neck
					{
						OFFSET 0.000000 -1.292100 9.044790 
						CHANNELS 3 Xrotation Yrotation Zrotation
						JOINT Head
						{
							OFFSET 0.000000 -0.822700 4.665770 
							CHANNELS 3 Xrotation Yrotation Zrotation
							End Site
							{
								OFFSET 0.000000 0.000010 5.577620 
							}
						}
					}
					JOINT RightShoulder
					{
						OFFSET -1.175120 -1.958530 6.345670 
						CHANNELS 3 Xrotation Yrotation Zrotation
						JOINT RightArm
						{
							OFFSET -5.836450 0.000000 0.000000 
							CHANNELS 3 Xrotation Yrotation Zrotation
							JOINT RightForeArm
							{
								OFFSET -10.886420 0.000000 0.000000 
								CHANNELS 3 Xrotation Yrotation Zrotation
								JOINT RightHand
								{
									OFFSET -10.194950 0.000000 0.000000 
									CHANNELS 3 Xrotation Yrotation Zrotation
									JOINT RightHandEnd
									{
										OFFSET -2.735920 0.000000 0.000000 
										CHANNELS 3 Xrotation Yrotation Zrotation
										End Site
										{
											OFFSET -2.735920 0.000000 0.000000 
										}
									}
									JOINT RightHandThumb1
									{
										OFFSET -1.094370 -1.823950 -0.729580 
										CHANNELS 3 Yrotation Xrotation Zrotation
										End Site
										{
											OFFSET -2.642700 -0.708110 0.000000 
										}
									}
								}
							}
						}
					}
					JOINT LeftShoulder
					{
						OFFSET 1.175120 -1.958530 6.345670 
						CHANNELS 3 Xrotation Yrotation Zrotation
						JOINT LeftArm
						{
							OFFSET 5.836450 0.000000 0.000000 
							CHANNELS 3 Xrotation Yrotation Zrotation
							JOINT LeftForeArm
							{
								OFFSET 10.886420 0.000000 0.000000 
								CHANNELS 3 Xrotation Yrotation Zrotation
								JOINT LeftHand
								{
									OFFSET 10.194950 0.000000 0.000000 
									CHANNELS 3 Xrotation Yrotation Zrotation
									JOINT LeftHandEnd
									{
										OFFSET 2.735920 0.000000 0.000000 
										CHANNELS 3 Xrotation Yrotation Zrotation
										End Site
										{
											OFFSET 2.735920 0.000000 0.000000 
										}
									}
									JOINT LeftHandThumb1
									{
										OFFSET 1.094370 -1.823950 -0.729580 
										CHANNELS 3 Yrotation Xrotation Zrotation
										End Site
										{
											OFFSET 2.642700 -0.708110 0.000000 
										}
									}
								}
							}
						}
					}
				}
			}
		}
	}
	JOINT RightUpLeg
	{
		OFFSET -3.486200 0.000000 -1.018440 
		CHANNELS 3 Xrotation Yrotation Zrotation
		JOINT RightLeg
		{
			OFFSET 0.000010 0.000000 -16.688210 
			CHANNELS 3 Xrotation Yrotation Zrotation
			JOINT RightFoot
			{
				OFFSET 0.000010 0.000000 -16.775360 
				CHANNELS 3 Xrotation Yrotation Zrotation
				JOINT RightToeBase
				{
					OFFSET 0.000000 -4.945160 -1.799890 
					CHANNELS 3 Xrotation Yrotation Zrotation
					End Site
					{
						OFFSET 0.000000 -2.820300 -0.000000 
					}
				}
			}
		}
	}
	JOINT LeftUpLeg
	{
		OFFSET 3.486200 0.000000 -1.018440 
		CHANNELS 3 Xrotation Yrotation Zrotation
		JOINT LeftLeg
		{
			OFFSET 0.000010 0.000000 -16.688210 
			CHANNELS 3 Xrotation Yrotation Zrotation
			JOINT LeftFoot
			{
				OFFSET 0.000010 0.000000 -16.775360 
				CHANNELS 3 Xrotation Yrotation Zrotation
				JOINT LeftToeBase
				{
					OFFSET 0.000000 -4.945160 -1.799890 
					CHANNELS 3 Xrotation Yrotation Zrotation
					End Site
					{
						OFFSET 0.000000 -2.820300 -0.000000 
					}
				}
			}
		}
	}
}
MOTION
Frames: 9
Frame Time: 0.008333
-7.819900 37.275398 9.423000 -96.066101 -1.152800 167.449203 3.106900 2.510200 -0.103400 2.423200 0.621500 0.063300 0.492400 -0.051900 -1.002600 -1.275600 0.108200 -0.165700 -7.953400 -2.889300 -2.382700 -15.034100 -0.067400 -3.457400 -0.057300 -0.249500 0.575800 28.948799 -51.075199 29.101299 -0.000000 0.000100 77.452202 3.191400 -6.137700 -12.952800 -0.000000 0.000000 0.000000 -0.000000 -0.000000 0.000000 1.613400 5.673100 -7.834900 22.878000 46.609798 -19.428301 -0.000000 -0.000100 -76.401398 -13.305000 -1.398600 11.436800 0.000000 -0.000000 -0.000000 -0.000000 0.000000 0.000000 -12.063500 9.004700 -24.809401 15.865400 0.000000 0.000000 -2.023700 -9.997100 -6.771600 -3.228500 0.000000 -0.000000 -11.638700 -4.169600 12.352600 12.003600 0.000000 0.000000 -7.422600 1.660900 -6.650700 1.215600 0.000000 0.000000 
-7.899000 37.276901 9.486600 -96.204498 -1.165400 166.805893 3.109900 2.457200 -0.120000 2.389800 0.634900 0.067200 0.504900 -0.031600 -0.948700 -1.260400 0.113200 -0.152500 -7.762500 -2.979200 -2.462500 -14.706100 -0.025200 -3.657000 0.001400 -0.142600 0.513700 31.709400 -50.833801 31.151300 -0.000000 0.000100 75.999298 3.930600 -7.425700 -13.450500 -0.000000 0.000000 -0.000000 -0.000000 0.000000 0.000000 1.905900 5.756700 -7.733200 24.381001 46.621300 -20.527399 -0.000000 -0.000100 -75.711700 -13.594900 -1.054000 11.440200 -0.000000 -0.000000 0.000000 0.000000 -0.000000 0.000000 -12.056900 8.850700 -25.314699 16.704500 0.000000 0.000000 -2.682500 -9.611000 -6.935700 -2.878500 0.000000 -0.000000 -11.791500 -4.236600 12.914000 11.998400 0.000000 0.000000 -7.462300 1.677300 -6.584700 1.280500 0.000000 0.000000 
-7.975900 37.276299 9.546200 -96.315300 -1.134000 166.130005 3.108200 2.451000 -0.130400 2.354800 0.646000 0.072000 0.517500 -0.012300 -0.889200 -1.243100 0.114100 -0.133700 -7.573600 -3.047900 -2.551100 -14.373800 0.000800 -3.872900 0.063300 -0.020400 0.457400 34.405998 -50.598598 33.126202 -0.000000 0.000100 74.524902 4.770500 -8.601400 -13.624900 0.000000 -0.000000 -0.000000 0.000000 0.000000 -0.000000 2.185200 5.809700 -7.615900 25.822800 46.726601 -21.517900 -0.000000 -0.000100 -75.285500 -13.546100 -0.456000 11.637100 0.000000 0.000000 -0.000000 0.000000 0.000000 -0.000000 -12.016200 8.739900 -25.850599 17.608999 0.000000 0.000000 -3.313200 -9.174300 -7.097400 -2.413400 0.000000 -0.000000 -11.926600 -4.270200 13.529100 12.020200 0.000000 0.000000 -7.497500 1.661400 -6.535300 1.292400 0.000000 0.000000 
-8.050600 37.273102 9.601900 -96.397598 -1.054800 165.420197 3.100100 2.497100 -0.134200 2.317900 0.653800 0.077700 0.528500 0.005000 -0.824600 -1.223800 0.111000 -0.109400 -7.385000 -3.095200 -2.647900 -14.034200 0.011600 -4.103700 0.136900 0.113700 0.408100 37.019199 -50.370800 35.021198 -0.000000 0.000100 73.040604 5.672700 -9.606800 -13.504400 -0.000000 0.000000 0.000000 0.000000 -0.000000 -0.000000 2.455500 5.834000 -7.480900 27.208500 46.943501 -22.399799 -0.000000 -0.000100 -75.066101 -13.338700 0.307500 11.828400 -0.000000 0.000000 -0.000000 0.000000 0.000000 -0.000000 -11.933700 8.681000 -26.377199 18.539900 0.000000 0.000000 -3.856300 -8.884700 -7.279300 -2.165000 0.000000 -0.000000 -12.047600 -4.267900 14.204200 12.074600 0.000000 0.000000 -7.537300 1.621800 -6.506100 1.264000 0.000000 0.000000 
-8.121900 37.269199 9.654900 -96.463097 -0.969100 164.676407 3.083300 2.552400 -0.131200 2.281800 0.657400 0.084000 0.541400 0.019300 -0.755200 -1.204600 0.104200 -0.080100 -7.197500 -3.120900 -2.751000 -13.701800 0.003800 -4.348500 0.225400 0.227200 0.369700 39.495998 -50.126701 36.788399 -0.000000 0.000100 71.577202 6.576900 -10.433900 -13.161900 0.000000 -0.000000 -0.000000 0.000000 0.000000 -0.000000 2.720000 5.859700 -7.330400 28.517500 47.238998 -23.143600 -0.000000 -0.000100 -75.066200 -13.101300 1.131300 12.050800 0.000000 0.000000 -0.000000 0.000000 -0.000000 0.000000 -11.822700 8.626500 -26.918800 19.526600 0.000000 0.000000 -4.442100 -8.271000 -7.506600 -1.687500 0.000000 -0.000000 -12.157100 -4.276000 14.928600 12.159000 0.000000 0.000000 -7.589600 1.575700 -6.495800 1.216400 0.000000 0.000000 
-8.190500 37.263302 9.704800 -96.504799 -0.858700 163.895706 3.058700 2.634800 -0.120800 2.248000 0.657500 0.090700 0.551500 0.030700 -0.681600 -1.186500 0.095000 -0.046000 -7.005800 -3.128300 -2.860900 -13.368200 -0.017100 -4.605000 0.331600 0.323100 0.340300 41.820000 -49.884602 38.410301 -0.000000 0.000100 70.154297 7.413500 -11.049300 -12.575000 0.000000 0.000000 0.000000 -0.000000 0.000000 -0.000000 2.980300 5.880500 -7.167600 29.748600 47.613998 -23.758900 -0.000000 -0.000100 -75.261002 -12.939800 1.928000 12.310700 -0.000000 -0.000000 0.000000 0.000000 -0.000000 0.000000 -11.670500 8.603600 -27.423599 20.545000 0.000000 0.000000 -4.994800 -7.591700 -7.814500 -1.316600 0.000000 -0.000000 -12.254800 -4.270600 15.674600 12.276700 0.000000 0.000000 -7.658900 1.521600 -6.468800 1.151300 0.000000 0.000000 
-8.256100 37.255798 9.752000 -96.526703 -0.733100 163.080902 3.025800 2.731700 -0.105000 2.215000 0.657000 0.097800 0.560400 0.039300 -0.604900 -1.166600 0.081700 -0.009400 -6.817200 -3.114700 -2.976100 -13.032600 -0.052100 -4.876000 0.450800 0.397900 0.315400 43.987301 -49.649799 39.872700 -0.000000 0.000100 68.814301 8.020100 -11.472400 -11.932200 -0.000000 0.000000 -0.000000 0.000000 -0.000000 -0.000000 3.230700 5.897400 -6.983800 30.966600 48.038601 -24.329201 -0.000000 -0.000100 -75.563904 -12.736900 2.568400 12.450200 0.000000 -0.000000 0.000000 -0.000000 -0.000000 0.000000 -11.479200 8.600900 -27.899300 21.574400 0.000000 0.000000 -5.490900 -6.872300 -8.203900 -0.911400 0.000000 -0.000000 -12.346600 -4.261200 16.420401 12.431700 0.000000 0.000000 -7.746400 1.461700 -6.408600 1.070400 0.000000 0.000000 
-8.316700 37.249901 9.797900 -96.545502 -0.640800 162.239899 2.982900 2.790000 -0.088200 2.181500 0.659200 0.105400 0.577100 0.044200 -0.526300 -1.140600 0.062700 0.026600 -6.645900 -3.078100 -3.095900 -12.709400 -0.106300 -5.163400 0.569700 0.434800 0.288200 45.972698 -49.422401 41.140099 -0.000000 0.000100 67.584900 8.441800 -11.931300 -11.445900 0.000000 -0.000000 0.000000 -0.000000 -0.000000 0.000000 3.464100 5.934000 -6.765600 32.194599 48.460400 -24.905100 -0.000000 -0.000100 -75.892502 -12.277900 3.081800 12.338700 -0.000000 0.000000 -0.000000 0.000000 0.000000 0.000000 -11.269200 8.571000 -28.346800 22.629000 0.000000 0.000000 -5.840400 -6.148400 -8.679700 -0.533700 0.000000 -0.000000 -12.434900 -4.302400 17.160801 12.618000 0.000000 0.000000 -7.844800 1.401800 -6.328800 0.975500 0.000000 0.000000 
-8.371900 37.246498 9.843100 -96.567596 -0.591700 161.376007 2.929100 2.797700 -0.071400 2.146100 0.665200 0.113700 0.605000 0.045600 -0.448100 -1.106200 0.038300 0.061000 -6.496800 -3.021300 -3.222400 -12.400400 -0.178200 -5.467500 0.675300 0.449700 0.255500 47.823799 -49.213100 42.244499 -0.000000 0.000100 66.421898 8.898500 -12.429500 -11.011300 0.000000 -0.000000 0.000000 -0.000000 -0.000000 0.000000 3.681700 5.996000 -6.511000 33.376099 48.905701 -25.456400 -0.000000 -0.000100 -76.208000 -11.440200 3.542500 11.925800 -0.000000 -0.000000 -0.000000 -0.000000 0.000000 -0.000000 -11.049200 8.505000 -28.777000 23.704700 0.000000 0.000000 -6.020100 -5.451500 -9.233500 -0.411500 0.000000 -0.000000 -12.517100 -4.404200 17.889500 12.824400 0.000000 0.000000 -7.947900 1.343300 -6.228500 0.849100 0.000000 0.000000 
